<svg width="24" height="24" viewBox="0 0 24 24" fill="none" xmlns="http://www.w3.org/2000/svg">
<path d="M11.4002 11.9997L15.3002 15.8997C15.4835 16.083 15.5752 16.3164 15.5752 16.5997C15.5752 16.883 15.4835 17.1164 15.3002 17.2997C15.1169 17.483 14.8835 17.5747 14.6002 17.5747C14.3169 17.5747 14.0835 17.483 13.9002 17.2997L9.3002 12.6997C9.2002 12.5997 9.1292 12.4914 9.0872 12.3747C9.0452 12.258 9.02453 12.133 9.0252 11.9997C9.0252 11.8664 9.04586 11.7414 9.0872 11.6247C9.12853 11.508 9.19953 11.3997 9.3002 11.2997L13.9002 6.69971C14.0835 6.51637 14.3169 6.42471 14.6002 6.42471C14.8835 6.42471 15.1169 6.51637 15.3002 6.69971C15.4835 6.88304 15.5752 7.11637 15.5752 7.39971C15.5752 7.68304 15.4835 7.91637 15.3002 8.09971L11.4002 11.9997Z" fill="white"/>
</svg>
