<svg width="24" height="24" viewBox="0 0 24 24" fill="none" xmlns="http://www.w3.org/2000/svg">
<path d="M12.5998 12.0003L8.6998 8.10029C8.51647 7.91696 8.4248 7.68363 8.4248 7.40029C8.4248 7.11696 8.51647 6.88363 8.6998 6.70029C8.88314 6.51696 9.11647 6.42529 9.3998 6.42529C9.68314 6.42529 9.91647 6.51696 10.0998 6.70029L14.6998 11.3003C14.7998 11.4003 14.8708 11.5086 14.9128 11.6253C14.9548 11.742 14.9755 11.867 14.9748 12.0003C14.9748 12.1336 14.9541 12.2586 14.9128 12.3753C14.8715 12.492 14.8005 12.6003 14.6998 12.7003L10.0998 17.3003C9.91647 17.4836 9.68314 17.5753 9.3998 17.5753C9.11647 17.5753 8.88314 17.4836 8.6998 17.3003C8.51647 17.117 8.4248 16.8836 8.4248 16.6003C8.4248 16.317 8.51647 16.0836 8.6998 15.9003L12.5998 12.0003Z" fill="white"/>
</svg>
