<svg width="24" height="24" viewBox="0 0 24 24" fill="none" xmlns="http://www.w3.org/2000/svg">
<path fill-rule="evenodd" clip-rule="evenodd" d="M22 12C22 13.7508 21.5501 15.3966 20.7595 16.8279C20.1905 16.9406 19.6021 16.9998 19 16.9998C15.9668 16.9998 13.284 15.4993 11.6535 13.2C11.8733 12.8409 11.9999 12.4186 11.9999 11.9667C11.9999 10.6596 10.9403 9.59999 9.63327 9.59999C8.32619 9.59999 7.2666 10.6596 7.2666 11.9667C7.2666 13.2737 8.32619 14.3333 9.63327 14.3333C9.79876 14.3333 9.96027 14.3163 10.1162 14.284C12.1171 17.0213 15.3521 18.7993 19.0024 18.7993C19.1145 18.7993 19.2262 18.7977 19.3374 18.7943C17.5109 20.7659 14.8996 22 12 22C6.47715 22 2 17.5228 2 12C2 6.47715 6.47715 2 12 2C17.5228 2 22 6.47715 22 12Z" fill="white"/>
</svg>
