<svg width="24" height="24" viewBox="0 0 24 24" fill="none" xmlns="http://www.w3.org/2000/svg">
<path fill-rule="evenodd" clip-rule="evenodd" d="M12 22C17.5229 22 22 17.5229 22 12C22 6.47705 17.5229 2 12 2C6.47705 2 2 6.47705 2 12C2 17.5229 6.47705 22 12 22ZM12 20C16.4185 20 20 16.4182 20 12C20 7.58179 16.4185 4 12 4C7.58154 4 4 7.58179 4 12C4 16.4182 7.58154 20 12 20Z" fill="white"/>
<path d="M19.3374 18.7944C19.9033 18.1838 20.3926 17.5039 20.793 16.7666C20.7817 16.7871 20.7705 16.8074 20.7593 16.8279C20.1904 16.9407 19.6021 16.9998 19 16.9998C15.9668 16.9998 13.2842 15.4993 11.6533 13.2C11.873 12.8408 12 12.4185 12 11.9666C12 10.6597 10.9404 9.6001 9.6333 9.6001C8.32617 9.6001 7.2666 10.6597 7.2666 11.9666C7.2666 13.2737 8.32617 14.3333 9.6333 14.3333C9.79883 14.3333 9.96045 14.3164 10.1162 14.2839C12.1172 17.0212 15.3521 18.7993 19.0024 18.7993C19.1147 18.7993 19.2261 18.7976 19.3374 18.7944Z" fill="white"/>
</svg>
