<svg width="24" height="24" viewBox="0 0 24 24" fill="none" xmlns="http://www.w3.org/2000/svg">
<path fill-rule="evenodd" clip-rule="evenodd" d="M12 22C17.5228 22 22 17.5228 22 12C22 6.47715 17.5228 2 12 2C6.47715 2 2 6.47715 2 12C2 17.5228 6.47715 22 12 22ZM4.44721 11.1056C3.95324 10.8586 3.35256 11.0588 3.10557 11.5528C2.85858 12.0468 3.05881 12.6474 3.55279 12.8944L4.84458 13.5403C9.34902 15.7925 14.651 15.7925 19.1554 13.5403L20.4472 12.8944C20.9412 12.6474 21.1414 12.0468 20.8944 11.5528C20.6474 11.0588 20.0468 10.8586 19.5528 11.1056L18.261 11.7515C14.3196 13.7222 9.6804 13.7222 5.73901 11.7515L4.44721 11.1056Z" fill="white"/>
</svg>
