<svg width="18" height="18" viewBox="0 0 18 18" fill="none" xmlns="http://www.w3.org/2000/svg">
<path d="M14.0686 5.53217C14.2809 5.31992 14.4001 5.03205 14.4001 4.73188C14.4001 4.43171 14.2809 4.14384 14.0686 3.93159C13.8564 3.71934 13.5685 3.6001 13.2683 3.6001C12.9681 3.6001 12.6803 3.71934 12.468 3.93159L9.0001 7.39952L5.53217 3.93159C5.31992 3.71934 5.03205 3.6001 4.73188 3.6001C4.43171 3.6001 4.14384 3.71934 3.93159 3.93159C3.71934 4.14384 3.6001 4.43171 3.6001 4.73188C3.6001 5.03205 3.71934 5.31992 3.93159 5.53217L7.39952 9.0001L3.93159 12.468C3.71934 12.6803 3.6001 12.9681 3.6001 13.2683C3.6001 13.5685 3.71934 13.8564 3.93159 14.0686C4.14384 14.2809 4.43171 14.4001 4.73188 14.4001C5.03205 14.4001 5.31992 14.2809 5.53217 14.0686L9.0001 10.6007L12.468 14.0686C12.6803 14.2809 12.9681 14.4001 13.2683 14.4001C13.5685 14.4001 13.8564 14.2809 14.0686 14.0686C14.2809 13.8564 14.4001 13.5685 14.4001 13.2683C14.4001 12.9681 14.2809 12.6803 14.0686 12.468L10.6007 9.0001L14.0686 5.53217Z" fill="white"/>
</svg>
