<svg width="24" height="24" viewBox="0 0 24 24" fill="none" xmlns="http://www.w3.org/2000/svg">
<path d="M17.0686 8.53168C17.2809 8.31943 17.4001 8.03156 17.4001 7.73139C17.4001 7.43122 17.2809 7.14335 17.0686 6.9311C16.8564 6.71885 16.5685 6.59961 16.2683 6.59961C15.9681 6.59961 15.6803 6.71885 15.468 6.9311L12.0001 10.399L8.53217 6.9311C8.31992 6.71885 8.03205 6.59961 7.73188 6.59961C7.43171 6.59961 7.14384 6.71885 6.93159 6.9311C6.71934 7.14335 6.6001 7.43122 6.6001 7.73139C6.6001 8.03156 6.71934 8.31943 6.93159 8.53168L10.3995 11.9996L6.93159 15.4675C6.71934 15.6798 6.6001 15.9677 6.6001 16.2678C6.6001 16.568 6.71934 16.8559 6.93159 17.0681C7.14384 17.2804 7.43171 17.3996 7.73188 17.3996C8.03205 17.3996 8.31992 17.2804 8.53217 17.0681L12.0001 13.6002L15.468 17.0681C15.6803 17.2804 15.9681 17.3996 16.2683 17.3996C16.5685 17.3996 16.8564 17.2804 17.0686 17.0681C17.2809 16.8559 17.4001 16.568 17.4001 16.2678C17.4001 15.9677 17.2809 15.6798 17.0686 15.4675L13.6007 11.9996L17.0686 8.53168Z" fill="black"/>
</svg>
