<svg width="30" height="30" viewBox="0 0 30 30" fill="none" xmlns="http://www.w3.org/2000/svg">
<g clip-path="url(#clip0_558_4242)">
<path d="M10.3858 4C6.86899 4 4 6.86899 4 10.3858V19.6142C4 23.131 6.86899 26 10.3858 26H19.6142C23.131 26 26 23.131 26 19.6142V10.3858C26 6.86899 23.131 4 19.6142 4H10.3858ZM10.3858 5.69231H19.6142C22.2154 5.69231 24.3077 7.78125 24.3077 10.3858V19.6142C24.3077 22.2154 22.2188 24.3077 19.6142 24.3077H10.3858C7.78456 24.3077 5.69231 22.2188 5.69231 19.6142V10.3858C5.69231 7.78456 7.78125 5.69231 10.3858 5.69231ZM21.3462 7.38462C20.6454 7.38462 20.0769 7.95312 20.0769 8.65385C20.0769 9.35457 20.6454 9.92308 21.3462 9.92308C22.0469 9.92308 22.6154 9.35457 22.6154 8.65385C22.6154 7.95312 22.0469 7.38462 21.3462 7.38462ZM15 9.07692C11.7377 9.07692 9.07692 11.7377 9.07692 15C9.07692 18.2623 11.7377 20.9231 15 20.9231C18.2623 20.9231 20.9231 18.2623 20.9231 15C20.9231 11.7377 18.2623 9.07692 15 9.07692ZM15 10.7692C17.3468 10.7692 19.2308 12.6532 19.2308 15C19.2308 17.3468 17.3468 19.2308 15 19.2308C12.6532 19.2308 10.7692 17.3468 10.7692 15C10.7692 12.6532 12.6532 10.7692 15 10.7692Z" fill="#959595"/>
</g>
<defs>
<clipPath id="clip0_558_4242">
<rect width="22" height="22" fill="white" transform="translate(4 4)"/>
</clipPath>
</defs>
</svg>
