<svg width="50" height="56" viewBox="0 0 50 56" fill="none" xmlns="http://www.w3.org/2000/svg">
<rect x="22" y="30" width="30" height="6" rx="3" transform="rotate(-90 22 30)" fill="white"/>
<path fill-rule="evenodd" clip-rule="evenodd" d="M18 6.99316C7.59992 10.0205 0 19.6227 0 30.9999C0 44.8071 11.1929 55.9999 25 55.9999C38.8071 55.9999 50 44.8071 50 30.9999C50 19.6227 42.4001 10.0205 32 6.99316V13.331C39.0292 16.1181 44 22.9785 44 30.9999C44 41.4933 35.4934 49.9999 25 49.9999C14.5066 49.9999 6 41.4933 6 30.9999C6 22.9785 10.9708 16.1181 18 13.331V6.99316Z" fill="#D0EE17"/>
</svg>
