<svg width="71" height="27" viewBox="0 0 71 27" fill="none" xmlns="http://www.w3.org/2000/svg">
<g clip-path="url(#clip0_558_4202)">
<path d="M2.38287 21.6001V6.0354H4.24379L14.7511 18.8207H13.7753V6.0354H16.0447V21.6001H14.1838L3.67644 8.81481H4.65228V21.6001H2.38287ZM23.9995 12.7505H32.1694V14.6405H23.9995V12.7505ZM24.2037 19.6656H33.463V21.6001H21.9343V6.0354H33.1453V7.96987H24.2037V19.6656ZM38.2722 21.6001V6.0354H44.4677C45.8598 6.0354 47.0474 6.25035 48.0307 6.68022C49.0143 7.1101 49.7707 7.73268 50.3001 8.54799C50.8298 9.36329 51.0944 10.3342 51.0944 11.4608C51.0944 12.5874 50.8298 13.5583 50.3001 14.3736C49.7707 15.1741 49.0143 15.7893 48.0307 16.2192C47.0474 16.649 45.8598 16.864 44.4677 16.864H39.5204L40.5416 15.8412V21.6001H38.2722ZM48.8931 21.6001L44.8535 15.9523H47.2818L51.3667 21.6001H48.8931ZM40.5416 16.0635L39.5204 14.974H44.3996C45.8521 14.974 46.9492 14.6701 47.6903 14.0623C48.447 13.4398 48.825 12.5726 48.825 11.4608C48.825 10.349 48.447 9.48927 47.6903 8.88152C46.9492 8.27376 45.8521 7.96987 44.3996 7.96987H39.5204L40.5416 6.85811V16.0635Z" fill="white"/>
<path d="M61.9224 5.08246V12.706C61.9224 13.2323 62.3578 13.6589 62.895 13.6589C63.4321 13.6589 63.8676 13.2323 63.8676 12.706V5.08246C63.8676 4.55617 63.4321 4.12952 62.895 4.12952C62.3578 4.12952 61.9224 4.55617 61.9224 5.08246Z" fill="white"/>
<path fill-rule="evenodd" clip-rule="evenodd" d="M60.6256 6.35083C57.2539 7.31244 54.7899 10.3626 54.7899 13.9765C54.7899 18.3623 58.4187 21.9177 62.895 21.9177C67.3712 21.9177 71 18.3623 71 13.9765C71 10.3626 68.5361 7.31244 65.1644 6.35083V8.36401C67.4432 9.24933 69.0548 11.4285 69.0548 13.9765C69.0548 17.3097 66.2968 20.0118 62.895 20.0118C59.4931 20.0118 56.7352 17.3097 56.7352 13.9765C56.7352 11.4285 58.3468 9.24933 60.6256 8.36401V6.35083Z" fill="#D0EE17"/>
</g>
<defs>
<clipPath id="clip0_558_4202">
<rect width="71" height="27" fill="white"/>
</clipPath>
</defs>
</svg>
