<svg width="24" height="24" viewBox="0 0 24 24" fill="none" xmlns="http://www.w3.org/2000/svg">
<path fill-rule="evenodd" clip-rule="evenodd" d="M8 4.45704C8 3.69048 7.21378 3.18429 6.57041 3.60105C3.81991 5.38279 2 8.4789 2 12.0001C2 17.5229 6.47715 22.0001 12 22.0001C17.5228 22.0001 22 17.5229 22 12.0001C22 8.4789 20.1801 5.38279 17.4296 3.60105C16.7862 3.18429 16 3.69049 16 4.45704V4.45704C16 4.83659 16.2056 5.18284 16.5186 5.39748C18.6209 6.839 20 9.25848 20 12.0001C20 16.4183 16.4183 20.0001 12 20.0001C7.58172 20.0001 4 16.4183 4 12.0001C4 9.25848 5.37908 6.839 7.48137 5.39748C7.7944 5.18284 8 4.83659 8 4.45704V4.45704Z" fill="white"/>
<path d="M16 9L15 3L21 4" stroke="white" stroke-width="2" stroke-linecap="round"/>
</svg>
