<svg width="72" height="72" viewBox="0 0 72 72" fill="none" xmlns="http://www.w3.org/2000/svg">
<path d="M36 66C35.3 66 34.7 65.8 34.2 65.4C33.7 65 33.325 64.475 33.075 63.825C32.125 61.025 30.925 58.4 29.475 55.95C28.075 53.5 26.1 50.625 23.55 47.325C21 44.025 18.925 40.875 17.325 37.875C15.775 34.875 15 31.25 15 27C15 21.15 17.025 16.2 21.075 12.15C25.175 8.05 30.15 6 36 6C41.85 6 46.8 8.05 50.85 12.15C54.95 16.2 57 21.15 57 27C57 31.55 56.125 35.35 54.375 38.4C52.675 41.4 50.7 44.375 48.45 47.325C45.75 50.925 43.7 53.925 42.3 56.325C40.95 58.675 39.825 61.175 38.925 63.825C38.675 64.525 38.275 65.075 37.725 65.475C37.225 65.825 36.65 66 36 66ZM36 34.5C38.1 34.5 39.875 33.775 41.325 32.325C42.775 30.875 43.5 29.1 43.5 27C43.5 24.9 42.775 23.125 41.325 21.675C39.875 20.225 38.1 19.5 36 19.5C33.9 19.5 32.125 20.225 30.675 21.675C29.225 23.125 28.5 24.9 28.5 27C28.5 29.1 29.225 30.875 30.675 32.325C32.125 33.775 33.9 34.5 36 34.5Z" fill="#FF0101"/>
</svg>
